<?xml version="1.0" standalone="no"?>
<!DOCTYPE svg PUBLIC "-//W3C//DTD SVG 20010904//EN"
 "http://www.w3.org/TR/2001/REC-SVG-20010904/DTD/svg10.dtd">
<svg version="1.0" xmlns="http://www.w3.org/2000/svg"
 width="383.000000pt" height="286.000000pt" viewBox="0 0 383.000000 286.000000"
 preserveAspectRatio="xMidYMid meet">
<metadata>
Created by potrace 1.16, written by Peter Selinger 2001-2019
</metadata>
<g transform="translate(0.000000,286.000000) scale(0.100000,-0.100000)"
fill="#000000" stroke="none">
<path d="M1758 2486 c-105 -19 -197 -50 -299 -102 -101 -52 -241 -161 -283
-221 -28 -40 -28 -43 -12 -67 28 -43 63 -35 126 30 107 108 232 183 387 231
78 23 105 27 238 27 147 0 152 0 253 -35 233 -82 419 -243 538 -464 20 -38 44
-76 52 -82 11 -9 62 -13 171 -13 104 0 178 -5 220 -15 204 -48 382 -225 436
-432 19 -73 19 -223 0 -296 -27 -105 -74 -187 -155 -267 -130 -130 -254 -180
-455 -180 -121 0 -155 -12 -155 -54 0 -46 27 -56 146 -56 130 0 205 12 294 47
195 77 351 243 416 439 26 81 29 102 29 224 -1 122 -3 143 -28 215 -85 243
-298 430 -541 474 -33 6 -117 11 -187 11 l-127 0 -32 58 c-108 191 -290 363
-481 451 -166 77 -380 107 -551 77z"/>
<path d="M2137 2113 c-4 -3 -7 -17 -7 -29 0 -18 12 -30 53 -50 171 -87 298
-213 397 -394 l35 -65 170 -6 c137 -5 181 -11 229 -28 125 -45 215 -117 293
-233 34 -53 50 -68 66 -66 38 6 44 34 19 81 -79 150 -249 276 -419 312 -38 8
-122 15 -190 15 -112 0 -122 2 -128 20 -16 49 -115 183 -194 260 -126 123
-291 216 -324 183z"/>
<path d="M1085 2036 c-11 -8 -33 -41 -49 -74 l-29 -60 -156 -4 c-137 -4 -166
-8 -236 -32 -170 -58 -334 -198 -408 -348 -113 -229 -100 -498 33 -702 64 -97
168 -192 265 -243 162 -84 75 -77 1122 -81 l932 -3 16 24 c18 28 8 70 -20 81
-9 3 -418 6 -908 6 -760 0 -901 3 -956 15 -204 48 -382 225 -436 432 -19 74
-19 223 0 298 36 136 128 267 244 343 122 82 199 102 394 102 82 0 157 5 167
10 20 11 110 175 110 201 0 19 -31 49 -51 49 -8 0 -23 -6 -34 -14z"/>
<path d="M3384 1216 c-17 -13 -17 -19 -3 -107 13 -85 16 -94 37 -97 40 -6 54
15 47 72 -15 120 -41 161 -81 132z"/>
</g>
</svg>
