<?xml version="1.0" standalone="no"?>
<!DOCTYPE svg PUBLIC "-//W3C//DTD SVG 20010904//EN"
 "http://www.w3.org/TR/2001/REC-SVG-20010904/DTD/svg10.dtd">
<svg version="1.0" xmlns="http://www.w3.org/2000/svg"
 width="512.000000pt" height="512.000000pt" viewBox="0 0 512.000000 512.000000"
 preserveAspectRatio="xMidYMid meet">
<metadata>
Created by potrace 1.16, written by Peter Selinger 2001-2019
</metadata>
<g transform="translate(0.000000,512.000000) scale(0.100000,-0.100000)"
fill="#000000" stroke="none">
<path d="M2305 5113 c-521 -62 -952 -236 -1340 -541 -101 -80 -315 -292 -400
-398 -234 -289 -407 -638 -495 -996 -57 -232 -65 -309 -65 -613 0 -294 6 -357
52 -565 66 -304 193 -602 364 -857 101 -151 165 -230 304 -372 413 -424 934
-684 1515 -756 144 -17 455 -20 598 -5 309 34 606 122 886 264 127 64 292 167
314 194 20 25 15 86 -8 107 -35 32 -81 24 -159 -28 -221 -147 -465 -253 -742
-321 -198 -49 -348 -67 -571 -67 -529 0 -1013 161 -1438 477 -131 98 -382 348
-478 476 -323 433 -482 909 -482 1448 0 536 157 1010 476 1440 100 135 349
384 484 484 350 260 738 414 1173 466 114 14 420 14 534 0 430 -51 827 -209
1173 -466 134 -99 383 -348 484 -484 320 -431 476 -904 476 -1447 0 -218 -17
-366 -66 -563 -105 -424 -306 -788 -606 -1096 -91 -93 -105 -130 -68 -177 17
-21 30 -27 59 -27 35 0 46 8 137 103 378 389 621 900 689 1447 20 162 20 477
0 640 -59 475 -257 936 -560 1305 -105 128 -314 330 -436 422 -359 270 -786
443 -1229 498 -113 14 -484 19 -575 8z"/>
<path d="M2400 4544 c-199 -37 -292 -65 -412 -125 -80 -40 -98 -59 -98 -104 0
-33 42 -75 75 -75 14 0 49 12 77 26 71 36 168 72 258 96 107 28 327 35 445 15
493 -86 876 -480 944 -971 7 -50 11 -354 11 -849 0 -847 -2 -874 -60 -1049
-156 -464 -591 -778 -1080 -778 -566 0 -1051 423 -1129 984 -7 50 -11 354 -11
849 0 646 3 787 15 867 30 184 107 364 212 498 70 90 86 123 73 158 -22 56
-77 70 -125 32 -82 -64 -211 -284 -269 -459 -66 -197 -67 -227 -63 -1154 3
-803 4 -833 24 -915 122 -493 472 -856 949 -982 115 -31 126 -32 324 -32 198
0 209 1 325 32 430 114 769 432 909 853 64 191 66 227 66 1099 0 872 -2 908
-66 1099 -140 422 -482 742 -910 852 -106 28 -138 31 -289 34 -93 2 -181 2
-195 -1z"/>
<path d="M2387 4225 c-361 -69 -656 -325 -765 -665 -47 -149 -47 -140 -47
-1000 0 -860 0 -851 47 -1000 101 -317 374 -569 704 -652 127 -32 341 -32 468
0 330 83 603 335 704 652 47 149 47 140 47 1000 0 636 -3 828 -13 875 -72 328
-262 571 -554 710 -52 24 -132 54 -178 65 -113 28 -307 35 -413 15z m373 -170
c147 -39 284 -120 391 -231 110 -116 168 -218 212 -373 21 -74 21 -95 25 -836
3 -810 1 -870 -44 -1005 -42 -125 -99 -215 -204 -320 -124 -124 -222 -181
-391 -227 -88 -24 -290 -24 -378 0 -169 46 -267 103 -391 227 -105 105 -162
195 -204 320 -45 135 -47 195 -44 1005 4 741 4 762 25 836 44 155 102 257 212
373 123 128 260 203 441 242 83 17 262 11 350 -11z"/>
<path d="M1980 2920 c-19 -19 -20 -33 -20 -324 l0 -305 26 -20 c35 -27 67 -26
100 3 24 20 28 32 32 90 l4 67 87 -85 c48 -46 99 -88 113 -91 48 -12 97 28 98
80 0 25 -20 50 -122 152 l-123 123 113 106 c114 108 126 127 106 179 -9 24
-62 48 -90 41 -14 -4 -60 -39 -102 -78 l-77 -72 -6 59 c-5 44 -12 64 -29 77
-30 24 -85 23 -110 -2z"/>
<path d="M2598 2929 c-10 -5 -22 -19 -28 -30 -6 -10 -33 -143 -60 -294 -52
-288 -53 -312 -11 -334 11 -6 33 -11 48 -11 55 0 65 18 93 160 l25 132 39
-131 c21 -71 46 -137 55 -145 26 -24 65 -29 104 -12 38 15 37 12 100 231 17
59 19 55 46 -90 23 -123 38 -145 97 -145 45 0 74 30 74 74 0 19 -23 153 -50
298 -45 236 -53 265 -76 286 -43 38 -123 24 -143 -27 -6 -14 -29 -87 -50 -161
l-38 -135 -26 85 c-14 47 -36 118 -47 158 -14 45 -30 78 -43 87 -24 17 -84 19
-109 4z"/>
<path d="M496 2659 c-33 -26 -37 -88 -6 -119 19 -19 33 -20 265 -20 232 0 246
1 265 20 33 33 30 85 -6 118 -25 21 -31 22 -258 22 -221 0 -235 -1 -260 -21z"/>
<path d="M4106 2658 c-36 -33 -39 -85 -6 -118 19 -19 33 -20 265 -20 232 0
246 1 265 20 31 31 27 93 -6 119 -25 20 -39 21 -260 21 -227 0 -233 -1 -258
-22z"/>
</g>
</svg>
