<?xml version="1.0" standalone="no"?>
<!DOCTYPE svg PUBLIC "-//W3C//DTD SVG 20010904//EN"
 "http://www.w3.org/TR/2001/REC-SVG-20010904/DTD/svg10.dtd">
<svg version="1.0" xmlns="http://www.w3.org/2000/svg"
 width="512.000000pt" height="512.000000pt" viewBox="0 0 512.000000 512.000000"
 preserveAspectRatio="xMidYMid meet">
<metadata>
Created by potrace 1.16, written by Peter Selinger 2001-2019
</metadata>
<g transform="translate(0.000000,512.000000) scale(0.100000,-0.100000)"
fill="#000000" stroke="none">
<path d="M2240 5105 c-444 -55 -852 -220 -1220 -493 -150 -112 -400 -362 -512
-512 -276 -372 -439 -779 -494 -1230 -17 -148 -17 -472 0 -620 55 -451 218
-858 494 -1230 112 -150 362 -400 512 -512 372 -276 779 -439 1230 -494 148
-17 472 -17 620 0 451 55 858 218 1230 494 150 112 400 362 512 512 276 372
439 779 494 1230 17 148 17 472 0 620 -55 451 -218 858 -494 1230 -112 150
-362 400 -512 512 -372 276 -779 439 -1230 494 -143 17 -488 16 -630 -1z m650
-310 c896 -137 1632 -799 1854 -1666 55 -216 70 -336 70 -569 0 -233 -15 -353
-70 -569 -200 -782 -833 -1415 -1615 -1615 -216 -55 -336 -70 -569 -70 -302 0
-559 47 -820 150 -760 301 -1290 970 -1416 1784 -25 159 -25 481 0 640 160
1039 981 1823 2021 1930 123 12 417 4 545 -15z"/>
<path d="M2260 4460 c-632 -107 -1139 -481 -1426 -1052 -195 -387 -248 -875
-143 -1303 80 -324 224 -594 452 -847 69 -76 98 -96 147 -99 79 -6 71 -12 362
278 298 297 307 310 292 390 -9 50 -70 109 -120 117 -76 13 -96 -1 -309 -214
l-201 -201 -30 38 c-122 153 -223 350 -280 548 -22 78 -54 239 -54 276 0 18
13 19 283 19 310 0 327 3 371 63 29 40 29 134 0 174 -44 60 -61 63 -372 63
l-284 0 7 62 c28 238 144 528 297 737 l61 83 201 -201 c214 -214 234 -228 310
-215 52 8 112 68 120 120 13 76 -1 96 -215 310 l-201 201 83 61 c209 153 499
269 737 297 l62 7 0 -284 c0 -311 3 -328 63 -372 40 -29 134 -29 174 0 60 44
63 61 63 372 l0 284 62 -7 c238 -28 528 -144 737 -297 l83 -61 -201 -201
c-147 -147 -204 -211 -211 -236 -34 -115 75 -224 190 -190 25 7 89 64 236 211
l201 201 61 -83 c153 -209 269 -499 297 -737 l7 -62 -284 0 c-311 0 -328 -3
-372 -63 -29 -40 -29 -134 0 -174 44 -60 61 -63 372 -63 269 0 282 -1 282 -19
0 -37 -32 -198 -54 -276 -57 -198 -158 -395 -280 -548 l-30 -38 -201 201
c-213 213 -233 227 -309 214 -50 -8 -111 -67 -120 -117 -15 -80 -5 -93 286
-384 245 -244 277 -273 316 -282 70 -15 108 1 180 77 228 241 390 538 471 867
72 295 69 641 -8 943 -171 663 -710 1202 -1373 1373 -46 11 -135 29 -198 40
-153 25 -439 24 -590 -1z"/>
<path d="M2480 3277 c-19 -12 -42 -36 -51 -52 -9 -17 -70 -275 -135 -575 -101
-470 -118 -558 -118 -640 -1 -87 2 -101 30 -161 44 -93 93 -142 182 -186 71
-36 81 -38 172 -38 91 0 101 2 172 38 89 44 138 93 182 186 28 60 31 74 30
161 0 82 -17 170 -118 640 -65 300 -126 558 -135 575 -27 46 -76 75 -131 75
-32 0 -58 -7 -80 -23z m125 -1064 c22 -104 39 -198 38 -211 -2 -38 -41 -72
-83 -72 -42 0 -81 34 -83 72 -2 27 76 398 83 398 3 0 23 -84 45 -187z"/>
<path d="M2460 1519 c-119 -23 -238 -117 -295 -232 -125 -254 -7 -539 261
-631 63 -21 205 -21 268 0 214 73 341 279 307 495 -41 256 -281 419 -541 368z
m176 -318 c62 -38 82 -131 41 -192 -99 -148 -317 -23 -240 138 22 46 67 73
123 73 26 0 58 -8 76 -19z"/>
</g>
</svg>
